<svg id="Capa_1" data-name="Capa 1" xmlns="http://www.w3.org/2000/svg" viewBox="0 0 708.66 654.38"><defs><style>.cls-1{fill:#fff;}.cls-2{fill:#020202;}.cls-3{fill:#e51d84;}.cls-4{fill:#e02a87;}</style></defs><rect class="cls-1" x="124.35" y="97.91" width="463.68" height="463.68" rx="231.84"/><path class="cls-2" d="M354.33,12.39C182,12.39,42.25,153.33,42.25,327.19S182,642,354.33,642s312.08-140.94,312.08-314.8S526.69,12.39,354.33,12.39Zm0,528.1c-119.19,0-215.82-95.5-215.82-213.3s96.63-213.3,215.82-213.3,215.82,95.5,215.82,213.3S473.52,540.49,354.33,540.49Z"/><path class="cls-3" d="M354.33,137.77c-104.33,0-188.91,84.81-188.91,189.42S250,516.61,354.33,516.61,543.24,431.8,543.24,327.19,458.66,137.77,354.33,137.77ZM408,476,299,398.06a42.87,42.87,0,0,1-18-34.89V276.3c0,91,91,127.39,91,127.39V258.56l-63-36.1v-49.7l99,49.5Z"/><path class="cls-1" d="M194.65,166.31l-5.54-6.05a12.33,12.33,0,0,0,2.4-1.75,5.4,5.4,0,0,0,2.05-3.71,5.79,5.79,0,0,0-1.83-3.94L162,118.39l6.65-6.1,29.58,32.29q4.77,5.21,4.7,9.93t-5,9.22A24,24,0,0,1,194.65,166.31Z"/><path class="cls-1" d="M217.82,142.43q-5-1.16-8.9-6.86l-16.9-25q-3.86-5.7-3.05-10.8T195.28,91q5.5-3.72,10.53-2.57t8.9,6.85l16.9,25q3.85,5.7,3,10.8t-6.31,8.82Q222.85,143.57,217.82,142.43Zm6.64-16.67L206.91,99.81q-3.16-4.69-7-2.07t-.7,7.31L216.72,131q3.17,4.69,7,2.07T224.46,125.76Z"/><path class="cls-1" d="M226.87,72.66l11.85-5L260,103.25l.15-.06L249.45,63.11l11.86-5L283.66,111l-7.86,3.32-16.92-40-.15.06,10.88,42.59-6.95,2.93-23-37.47-.16.06,16.93,40-7.26,3.07Z"/><path class="cls-1" d="M290.73,50.22l12-2.47,20.78,54.31-8.83,1.83-3.92-10.83,0,.16-10,2.08.67,11.33-8.19,1.7Zm17.41,35.59-9.68-27-.16,0,1.89,28.58Z"/><path class="cls-1" d="M356.4,42.91,380.24,44l-.37,8.19-14.82-.66-.72,16L376,68l-.37,8.19L364,75.68l-1.12,25-9-.4Z"/><path class="cls-1" d="M391.6,100.4Q389,96,390.42,89.22l9-42.86,8.83,1.84-9.1,43.51a6.29,6.29,0,0,0,.29,4.41,5.1,5.1,0,0,0,6.67,1.4,6.3,6.3,0,0,0,2-3.93l9.1-43.51,8.51,1.78-9,42.86q-1.42,6.82-5.56,9.77t-10.55,1.61Q394.21,104.75,391.6,100.4Z"/><path class="cls-1" d="M450.17,68.44,441.38,65l3-7.64,26,10.14-3,7.64-8.79-3.43-17.9,45.83-8.4-3.28Z"/><path class="cls-1" d="M461.72,124.06q-1-4.92,2.54-10.92l1.67-2.83,7.34,4.33-2,3.39c-1.88,3.21-1.49,5.6,1.2,7.18a4.41,4.41,0,0,0,3.69.61,6.64,6.64,0,0,0,3.25-3.18,12.07,12.07,0,0,0,1.81-6.31,30.11,30.11,0,0,0-1.87-8.76A36.12,36.12,0,0,1,477.16,96a18.1,18.1,0,0,1,2.65-8.86q3.46-5.86,8.32-7.33t10.51,1.86q5.58,3.3,6.55,8.2t-2.57,10.9l-1.21,2-7.35-4.33,1.5-2.54a6.62,6.62,0,0,0,1.2-4.3,4.17,4.17,0,0,0-2.21-2.87q-3.89-2.3-6.68,2.44A11,11,0,0,0,486.36,97a32.45,32.45,0,0,0,1.93,8.75q2.38,7.13,2.18,11.66a19.83,19.83,0,0,1-3,9.21q-3.57,6.08-8.5,7.55t-10.64-1.89Q462.73,129,461.72,124.06Z"/><path class="cls-1" d="M531.58,105.3l9.37,7.85-29.7,50-6.91-5.79,6.06-9.79-.11.12-7.85-6.58L494,148.67l-6.42-5.37ZM514.48,141l15.14-24.33-.12-.11-21.24,19.22Z"/><path class="cls-1" d="M561.76,133.12l5.9,6.82-37.2,32.19,9.71,11.22-6.2,5.37-15.62-18.05Z"/><path class="cls-1" d="M166,548.64q-.81-5,3-10.46l17.32-25c2.51-3.64,5.43-5.79,8.73-6.47s6.78.26,10.43,2.79,5.75,5.45,6.29,8.78-.45,6.81-3,10.45l-3.41,4.93-7.22-5,3.73-5.4q3-4.32-.82-7t-6.81,1.69l-18,26.06q-3,4.26.87,6.9t6.76-1.63l4.93-7.13,7.22,5-4.56,6.6q-3.78,5.46-8.73,6.47t-10.44-2.78Q166.76,553.63,166,548.64Z"/><path class="cls-1" d="M205.91,573.65q-1.65-4.93,1.33-11.06l13-26.82q3-6.12,7.86-7.89t11,1.21q6.15,3,7.78,7.92t-1.33,11l-13,26.83q-3,6.12-7.86,7.89t-11-1.21Q207.54,578.59,205.91,573.65Zm18.08-2.3,13.5-27.84q2.44-5-1.89-7.13t-6.76,2.93l-13.5,27.84q-2.44,5,1.89,7.13T224,571.35Z"/><path class="cls-1" d="M249.16,592.47q-2.21-4.54-.16-11.12l1-3.09,8.38,2.6-1.16,3.71q-1.64,5.26,3,6.69a4.61,4.61,0,0,0,3.82-.21,6.33,6.33,0,0,0,2.45-3.77,11.68,11.68,0,0,0,.26-6.5,30.53,30.53,0,0,0-4-8.08q-4-6.35-5-10.77a17.38,17.38,0,0,1,.46-9.15q2-6.42,6.48-8.88t10.92-.47q6.36,2,8.53,6.52t.12,11.11l-.7,2.24L275,560.69l.86-2.78a6.35,6.35,0,0,0,.14-4.41,4.38,4.38,0,0,0-2.91-2.31c-2.95-.91-5,.35-6,3.81a10.38,10.38,0,0,0-.06,6,32.1,32.1,0,0,0,4.08,8.06q4.11,6.36,5,10.81a18.92,18.92,0,0,1-.67,9.54q-2.07,6.66-6.6,9.15t-11.06.46Q251.38,597,249.16,592.47Z"/><path class="cls-1" d="M305.85,560l-9.58-1.53,1.28-8L325.87,555l-1.28,8L315,561.47l-7.67,48L298.17,608Z"/><path class="cls-1" d="M340.49,555.83l12.57.35,8.05,56.94-9.28-.26-1.38-11.3v.16l-10.54-.29-2,11.05-8.61-.24ZM349.57,594l-3.36-28.13H346l-4.82,27.9Z"/><path class="cls-1" d="M395,553.39l13.47-2.76q7-1.44,10.89,1t5.2,9l.7,3.42q1.77,8.64-3.71,12.16l0,.16a7.19,7.19,0,0,1,5.47,2.94,19.21,19.21,0,0,1,3,7.57l2,9.76a38.43,38.43,0,0,0,.95,3.82,9.71,9.71,0,0,0,1.42,2.72l-9.25,1.9a12.06,12.06,0,0,1-1.18-2.4,37.14,37.14,0,0,1-1.05-4.25l-2.08-10.16q-.78-3.81-2.37-5.06c-1.06-.83-2.63-1-4.73-.6l-3.14.65,4.88,23.8-9.09,1.86Zm17.27,21.26a5.74,5.74,0,0,0,3.82-2.18c.72-1.09.87-2.69.43-4.81l-.87-4.28a7.1,7.1,0,0,0-2-4.14,4.45,4.45,0,0,0-3.79-.63l-4.14.85L409,575.33Z"/><path class="cls-1" d="M434.94,543.78l8.79-3,18.09,53.74-8.8,3Z"/><path class="cls-1" d="M482.74,583.37q-4.73-1.79-7.59-7.78L462,548.1q-2.87-6-1.27-10.79t7.61-7.67c4-1.91,7.59-2.27,10.74-1.08s5.68,3.78,7.59,7.78l2.58,5.41-7.92,3.77-2.83-5.92q-2.27-4.76-6.45-2.75t-1.92,6.75l13.64,28.58q2.22,4.68,6.41,2.68t2-6.67l-3.73-7.83,7.92-3.77,3.45,7.23q2.87,6,1.27,10.8t-7.61,7.66Q487.47,585.16,482.74,583.37Z"/><path class="cls-1" d="M497.39,514.43l10.39-7.08,39.87,41.44L540,554l-7.74-8.36.09.14-8.71,5.93,4.85,10.12-7.11,4.85Zm29.71,25.62-19.19-20.83-.14.1,12.43,25.44Z"/><polygon class="cls-4" points="90.59 291.08 101.39 312.97 125.54 316.48 108.07 333.51 112.19 357.57 90.59 346.21 68.99 357.57 73.11 333.51 55.64 316.48 79.79 312.97 90.59 291.08"/><polygon class="cls-4" points="618.07 291.08 628.87 312.97 653.02 316.48 635.55 333.51 639.67 357.57 618.07 346.21 596.47 357.57 600.6 333.51 583.12 316.48 607.27 312.97 618.07 291.08"/></svg>