<svg id="Capa_1" data-name="Capa 1" xmlns="http://www.w3.org/2000/svg" viewBox="0 0 738.72 249.12"><defs><style>.cls-1{fill:#fcce30;}</style></defs><path class="cls-1" d="M172.56,33.65,43.47,125.4s-11.13,8.53,0,10h56.75s-17.43-5.56-1.85-21.88Z"/><path class="cls-1" d="M24.63,225.3l129.09-91.74s11.13-8.53,0-10H97s0,0,0,0c1.12.39,16.82,6.12,1.79,21.87Z"/><path class="cls-1" d="M167.36,169.91c1.12-.37,26.34-18.18,26.34-18.18H249s-5.89-12.75-11.52-19.22a28.12,28.12,0,0,1-5.12-8.34c-2.8-7.32-3.76-19.18,11.08-30.3,0,0,5.93-4.83,29.67-5.57h49.71l-13,19.66H264.34a6.38,6.38,0,0,0-4.76,2.1C257,113,254.1,118.68,262,125.77c0,0,37.55,41.18-5,44.71-.22,0-.46,0-.68,0H167.36Z"/><path class="cls-1" d="M429.81,88.3c4.46,33-24.19,73.32-28.42,79.06a.37.37,0,0,1-.67-.16L386.78,88.3H350.05v9.07a4.11,4.11,0,0,1-1.18,2.89l-69.3,70.25h33.95l7.6-8.58H369.9l1.67,8.58s110.17.7,117.4,0,8-5.79,8-5.79l4.45-11.87H437.23l6.12-15h50.09a3.47,3.47,0,0,0,2.61-1.17c3.61-4.19,6.28-15.15,6.28-15.15H447.8l6.12-14.28h98.3l-26.9,63.29h22.82a5.18,5.18,0,0,0,4-1.9A19.17,19.17,0,0,0,555,163c.13-.41.28-.8.45-1.2l23.45-54.21,27.45-.74c11.68-.56,18-18.55,18-18.55Zm-92.18,55.83,24.11-25.6,6.3,25.6Z"/><path class="cls-1" d="M680,89.28H642.59v9.06a3,3,0,0,1-.86,2.1l-69.25,70.38H606l7.79-9.07H662.2l3.34,9.07h28.1Zm-49.94,55.08,24.62-26.15,5.57,26.15Z"/></svg>