<svg id="Capa_1" data-name="Capa 1" xmlns="http://www.w3.org/2000/svg" xmlns:xlink="http://www.w3.org/1999/xlink" viewBox="0 0 341.28 247.18"><defs><style>.cls-1{fill:url(#Degradado_sin_nombre_7);}.cls-2{fill:#bababa;}.cls-3{fill:#282f6a;}.cls-4{font-size:22.29px;fill:#1d1d1b;font-family:CoolveticaRg-Regular, Coolvetica;}</style><linearGradient id="Degradado_sin_nombre_7" x1="87.81" y1="120.86" x2="209.75" y2="120.86" gradientUnits="userSpaceOnUse"><stop offset="0.22" stop-color="#262e64"/><stop offset="0.92" stop-color="#28326f"/></linearGradient></defs><path class="cls-1" d="M101,96.52a56.41,56.41,0,0,1,7.51-3c5.27-1.66,13.27-4,15.2-4.39,12-2.45,46.14-8.21,63.2.94,0,0,23.58,9.9,26.22,21.12,0,0,3.8,16.81-11.7,18a19.37,19.37,0,0,1-8.45-1.32l-31.34-12S140.92,146.94,120,156.5a1.22,1.22,0,0,1-1.17-.07c-3.46-2.14-21.76-14.72-35.4-48.62a2.76,2.76,0,0,1,1.51-3.57Z"/><path class="cls-2" d="M118,170.8c.21,3.16,1.73,6,6.63,5.69a11.92,11.92,0,0,0,5.46-1.84c4.4-2.72,14.61-9.4,20.27-16.09a.17.17,0,0,1,.28.2c-2.43,4.13-8.77,13.75-18,19.55a5.83,5.83,0,0,0-2.82,4c-.29,2,.64,4.16,6.2,4.22a20.32,20.32,0,0,0,12.58-4.39L166,168.6a.3.3,0,0,1,.45.4c-2.33,3.59-8.9,13-16.86,17.8a2.48,2.48,0,0,0,.85,4.59c2.82.46,7.89-.12,17-3.57a3.78,3.78,0,0,0,2.21-4.95c-2-4.8-3.71-13.28,7-15.76,0,0,3.08-1.54,7.93,1.76,0,0-1.55-12.54,18.48-10.56,0,0-.44-13.2,16.07-11.44,0,0-.88-17.83,17.6-12.33l18.9,19.75a.51.51,0,0,0,.87-.27c1.31-8.13,7.06-64-80.31-73.46-.24,0-.35.33-.12.42,7.82,3.31,45.64,20.21,41.3,36.4,0,0-1.8,24-29.83,12.76l-23.87-9.21S137.89,151,123.43,160.5A11.61,11.61,0,0,0,118,170.8Z"/><rect class="cls-3" x="229.11" y="133.22" width="17.98" height="40.11" rx="8.99" transform="translate(-41.52 197.98) rotate(-41.85)"/><rect class="cls-3" x="212.04" y="146.72" width="17.98" height="38.01" rx="8.99" transform="translate(-54.94 178.44) rotate(-39.5)"/><rect class="cls-3" x="176" y="168.09" width="13.78" height="30.04" rx="6.89" transform="translate(-74.71 158.15) rotate(-39.5)"/><rect class="cls-3" x="194.09" y="158.76" width="15.59" height="32.59" rx="7.8" transform="translate(-65.24 168.39) rotate(-39.5)"/><path class="cls-3" d="M98,173.17l-5.66,20a.94.94,0,0,0,1.16,1.17l21.8-6.17a1,1,0,0,0,.23-1.72,63.16,63.16,0,0,1-15.9-13.63A1,1,0,0,0,98,173.17Z"/><path class="cls-2" d="M74.46,124.83,43.84,137.9a.67.67,0,0,0,0,1.22l30.62,13.07a.67.67,0,0,0,.9-.8,41.84,41.84,0,0,1,0-25.75A.67.67,0,0,0,74.46,124.83Z"/><path class="cls-3" d="M174.18,73.82,160.86,42.59a.91.91,0,0,0-1.67,0L145.87,73.82a.9.9,0,0,0,.91,1.25q6.5-.58,13.24-.59t13.25.59A.9.9,0,0,0,174.18,73.82Z"/><path class="cls-2" d="M256.23,69.34,219.45,84.12a.7.7,0,0,0,0,1.31,96.56,96.56,0,0,1,24.92,14.18.69.69,0,0,0,1.09-.29l11.68-29.06A.71.71,0,0,0,256.23,69.34Z"/><path class="cls-3" d="M263.07,157.52l29.81-12.72a.94.94,0,0,0,0-1.73l-29.81-12.71a.93.93,0,0,0-1.26,1.13,41.71,41.71,0,0,1,0,24.89A.94.94,0,0,0,263.07,157.52Z"/><text class="cls-4" transform="translate(31.84 224.94)">Tienda de Empleados Públicos</text></svg>