<svg id="Capa_1" data-name="Capa 1" xmlns="http://www.w3.org/2000/svg" xmlns:xlink="http://www.w3.org/1999/xlink" viewBox="0 0 751.59 531.43"><defs><style>.cls-1{fill:url(#Degradado_sin_nombre_137);}.cls-2{fill:url(#Degradado_sin_nombre_137-2);}.cls-3{fill:url(#Degradado_sin_nombre_137-3);}.cls-4{fill:url(#Degradado_sin_nombre_137-4);}</style><linearGradient id="Degradado_sin_nombre_137" x1="39.18" y1="347.27" x2="875.97" y2="-49.11" gradientUnits="userSpaceOnUse"><stop offset="0.06" stop-color="#69bc93"/><stop offset="1" stop-color="#649cd4"/></linearGradient><linearGradient id="Degradado_sin_nombre_137-2" x1="74.65" y1="422.15" x2="911.44" y2="25.78" xlink:href="#Degradado_sin_nombre_137"/><linearGradient id="Degradado_sin_nombre_137-3" x1="48.59" y1="388.04" x2="991.96" y2="-58.82" xlink:href="#Degradado_sin_nombre_137"/><linearGradient id="Degradado_sin_nombre_137-4" x1="135.29" y1="571.08" x2="1078.66" y2="124.22" xlink:href="#Degradado_sin_nombre_137"/></defs><polygon class="cls-1" points="288.17 71.68 174.05 71.67 59.94 185.78 345.22 414.01 345.22 128.73 288.17 71.68"/><polygon class="cls-2" points="119.12 436.83 233.24 493.88 233.24 345.54 119.12 254.25 119.12 436.83"/><polygon class="cls-3" points="563.01 27.58 434.36 27.57 370.04 91.89 370.04 413.51 627.33 207.68 627.33 207.68 627.33 207.68 691.65 156.22 563.01 27.58"/><polygon class="cls-4" points="498.68 503.55 627.33 439.23 627.33 233.4 498.68 336.32 498.68 503.55"/></svg>