<svg viewBox="0 0 24 24" xmlns="http://www.w3.org/2000/svg"><path d="M5.75 6a1 1 0 0 0 1-1V2.25A.25.25 0 0 1 7 2h8.586l2.164 2.164V5a1 1 0 0 0 2 0V3.75a1 1 0 0 0-.293-.707L17 .588A2.01 2.01 0 0 0 15.586 0H6.75a2 2 0 0 0-2 2v3a1 1 0 0 0 1 1ZM21.5 7h-19A2.5 2.5 0 0 0 0 9.5V14a2.5 2.5 0 0 0 2.5 2.5H5v6.25A1.25 1.25 0 0 0 6.25 24h12a1.251 1.251 0 0 0 1.25-1.25V16.5h2A2.5 2.5 0 0 0 24 14V9.5A2.5 2.5 0 0 0 21.5 7Zm-18 4.5a1 1 0 1 1 1-1 1 1 0 0 1-1 1Zm14 10a.5.5 0 0 1-.5.5H7.5a.5.5 0 0 1-.5-.5v-9.042a.5.5 0 0 1 .5-.5H17a.5.5 0 0 1 .5.5Z" fill="#ffffff" class="fill-000000"></path><path d="M15 14.75H9.5a.75.75 0 0 0 0 1.5H15a.75.75 0 0 0 0-1.5ZM13.25 18.25H9.5a.75.75 0 0 0 0 1.5h3.75a.75.75 0 0 0 0-1.5Z" fill="#ffffff" class="fill-000000"></path></svg>