<svg viewBox="0 0 24 24" xml:space="preserve" xmlns="http://www.w3.org/2000/svg" enable-background="new 0 0 24 24"><g id="Layer_2"><path d="M18 3H6C3.8 3 2 4.8 2 7v10c0 2.2 1.8 4 4 4h12c2.2 0 4-1.8 4-4V7c0-2.2-1.8-4-4-4zm2 14c0 1.1-.9 2-2 2H6c-1.1 0-2-.9-2-2v-7h16v7zm0-9H4V7c0-1.1.9-2 2-2h12c1.1 0 2 .9 2 2v1z" fill="#026773" class="fill-000000"></path><circle cx="10.9" cy="6.6" r=".8" fill="#026773" class="fill-000000"></circle><circle cx="8.3" cy="6.6" r=".8" fill="#026773" class="fill-000000"></circle><circle cx="5.8" cy="6.6" r=".8" fill="#026773" class="fill-000000"></circle></g></svg>